<svg height="511pt" viewBox="-93 1 511 511.99999" width="511pt" xmlns="http://www.w3.org/2000/svg"><path d="m38 7.5-15 15v15c0 8.285156 6.714844 15 15 15s15-6.714844 15-15v-15zm0 0" fill="#a8e5ff"/><path d="m163 187.5 20 277h30l20-277zm0 0" fill="#5f49c0"/><path d="m103 187.5 20 277h60v-277zm0 0" fill="#8e56ff"/><path d="m113 172.5c-11.046875 0-20 8.953125-20 20v272h30v-292zm0 0" fill="#2f3c81"/><path d="m243 192.5c0-11.046875-8.953125-20-20-20h-10v292h30zm0 0" fill="#2f3c81"/><path d="m163 97.5 20 129.257812c1.871094-1.675781 3.464844-3.660156 4.695312-5.878906 2.6875 2.546875 6.308594 4.121094 10.304688 4.121094 8.28125 0 15-6.71875 15-15v-112.5zm0 0" fill="#ebebeb"/><path d="m123 97.5v112.5c0 8.28125 6.714844 15 15 15 3.996094 0 7.617188-1.574219 10.304688-4.121094 3.835937 6.929688 11.214843 11.621094 19.695312 11.621094 5.765625 0 11.019531-2.175781 15-5.742188v-129.257812zm0 0" fill="#fff"/><path d="m210.429688 82.5-42.429688-30v90c24.851562 0 45-20.148438 45-45 0-5.261719-.914062-10.308594-2.570312-15zm0 0" fill="#ffb4a9"/><path d="m168 52.5-42.429688 30c-1.660156 4.691406-2.570312 9.738281-2.570312 15 0 24.851562 20.144531 45 45 45 8.285156 0 15-20.148438 15-45s-6.714844-45-15-45zm0 0" fill="#ffd9d4"/><path d="m206.980469 75.027344-38.980469-67.527344-10 75h52.417969c-.925781-2.605469-2.074219-5.109375-3.4375-7.472656zm0 0" fill="#5f49c0"/><path d="m129.019531 75.027344c-1.367187 2.363281-2.511719 4.867187-3.4375 7.472656h42.417969v-75zm0 0" fill="#8e56ff"/><path d="m325.5 117.5c0-4.140625-3.359375-7.5-7.5-7.5-4.144531 0-7.5 3.359375-7.5 7.5 0 35.074219-26.890625 63.972656-61.136719 67.191406-3.375-11.371094-13.914062-19.691406-26.363281-19.691406h-2.5v-67.5c0-2.515625-.1875-5.023438-.546875-7.5h38.046875c4.140625 0 7.5-3.359375 7.5-7.5s-3.359375-7.5-7.5-7.5h-42.578125c-.601563-1.261719-1.246094-2.507812-1.945313-3.722656l-38.980468-67.527344c-1.339844-2.320312-3.816406-3.75-6.496094-3.75s-5.15625 1.429688-6.496094 3.75l-38.980468 67.527344c-.703126 1.214844-1.347657 2.457031-1.945313 3.722656h-42.578125c-4.140625 0-7.5 3.355469-7.5 7.5 0 4.140625 3.359375 7.5 7.5 7.5h38.046875c-.359375 2.476562-.546875 4.980469-.546875 7.5v67.5h-2.5c-12.5625 0-23.179688 8.46875-26.453125 20h-41.046875v-126.289062c8.730469-3.097657 15-11.433594 15-21.210938v-15c0-1.988281-.789062-3.898438-2.195312-5.304688l-15-15c-2.929688-2.925781-7.679688-2.925781-10.609376 0l-15 15c-1.40625 1.40625-2.195312 3.316407-2.195312 5.304688v15c0 9.777344 6.269531 18.113281 15 21.210938v96.289062h-7.5c-12.40625 0-22.5 10.09375-22.5 22.5s10.09375 22.5 22.5 22.5h7.5v304.496094c0 4.144531 3.359375 7.5 7.5 7.5s7.5-3.355469 7.5-7.5v-304.496094h40v264.5c0 4.140625 3.359375 7.5 7.5 7.5h37.5v17.09375l-24.871094 8.289062c-3.929687 1.308594-6.054687 5.558594-4.746094 9.488282 1.046876 3.140625 3.976563 5.128906 7.113282 5.128906.789062 0 1.585937-.125 2.375-.386719l30-10c3.0625-1.019531 5.128906-3.886719 5.128906-7.113281v-22.5h45v22.5c0 3.226562 2.0625 6.09375 5.125 7.113281l30 10c.789062.261719 1.589844.386719 2.375.386719 3.140625 0 6.066406-1.988281 7.113281-5.128906 1.308594-3.929688-.8125-8.179688-4.742187-9.488282l-24.871094-8.289062v-17.09375h37.5c4.140625 0 7.496094-3.359375 7.496094-7.5v-264.855469c41.988281-3.804687 75.003906-39.183593 75.003906-82.144531zm-295-91.894531 7.5-7.5 7.5 7.5v11.894531c0 4.136719-3.363281 7.5-7.5 7.5s-7.5-3.363281-7.5-7.5zm-7.5 159.394531c-4.136719 0-7.5-3.363281-7.5-7.5s3.363281-7.5 7.5-7.5h7.5v15zm107.5 272v-187h45v39.5c0 4.140625 3.355469 7.5 7.5 7.5 4.140625 0 7.5-3.359375 7.5-7.5v-39.5h15v187zm75-202h-75v-23.789062c2.347656.832031 4.871094 1.289062 7.5 1.289062 2.929688 0 5.785156-.566406 8.4375-1.644531 5.582031 5.761719 13.332031 9.144531 21.5625 9.144531s15.976562-3.378906 21.558594-9.144531c2.652344 1.078125 5.511718 1.644531 8.441406 1.644531 2.628906 0 5.152344-.457031 7.5-1.289062zm-74.234375-165h73.46875c.503906 2.457031.765625 4.972656.765625 7.5 0 20.675781-16.824219 37.5-37.5 37.5-20.679688 0-37.5-16.824219-37.5-37.5 0-2.527344.261719-5.039062.765625-7.5zm36.734375-67.5 30.304688 52.5h-60.609376zm0 127.5c14.679688 0 27.960938-6.0625 37.5-15.808594v75.808594c0 4.136719-3.363281 7.5-7.5 7.5-1.914062 0-3.742188-.734375-5.148438-2.066406-1.683593-1.59375-4.007812-2.320313-6.304687-1.964844-2.292969.351562-4.292969 1.75-5.414063 3.78125-2.648437 4.777344-7.679687 7.75-13.132812 7.75s-10.488281-2.972656-13.132812-7.75c-1.125-2.03125-3.125-3.425781-5.417969-3.78125-2.289063-.355469-4.617188.375-6.304688 1.96875-1.402343 1.332031-3.230469 2.0625-5.144531 2.0625-4.136719 0-7.5-3.363281-7.5-7.5v-75.808594c9.535156 9.746094 22.820312 15.808594 37.5 15.808594zm-67.5 42.5c0-6.894531 5.605469-12.5 12.5-12.5h2.5v277h-15zm135 264.5h-15v-277h2.5c6.890625 0 12.5 5.605469 12.5 12.5zm0 0"/></svg>